# AST/ASF file generated using VICON BodyLanguage
# -----------------------------------------------
:version 1.10
:name VICON
:units
  mass 1.0
  length 0.45
  angle deg
:documentation
   .ast/.asf automatically generated from VICON data using
   VICON BodyBuilder and BodyLanguage model FoxedUp or BRILLIANT.MOD
:root
   order TX TY TZ RX RY RZ
   axis XYZ
   position 0 0 0  
   orientation 0 0 0 
:bonedata
  begin
     id 1 
     name lhipjoint
     direction 0.567149 -0.783011 0.255413 
     length 2.28399 
     axis 0 0 0  XYZ
  end
  begin
     id 2 
     name lfemur
     direction 0.34202 -0.939693 0  
     length 7.34031  
     axis 0 0 20  XYZ
    dof rx ry rz
    limits (-160.0 20.0)
           (-70.0 70.0)
           (-60.0 70.0)
  end
  begin
     id 3 
     name ltibia
     direction 0.34202 -0.939693 0   
     length 6.9833   
     axis 0 0 20   XYZ
    dof rx
    limits (-10.0 170.0)
  end
  begin
     id 4 
     name lfoot
     direction 0.136498 -0.375025 0.91691   
     length 2.33665   
     axis -90 7.62852e-016 20   XYZ
    dof rx rz
    limits (-45.0 90.0)
           (-70.0 20.0)
  end
  begin
     id 5 
     name ltoes
     direction 1.5367e-011 -4.21617e-011 1   
     length 1.15039   
     axis -90 7.62852e-016 20   XYZ
    dof rx
    limits (-90.0 20.0)
  end
  begin
     id 6 
     name rhipjoint
     direction -0.602854 -0.758518 0.247423   
     length 2.35775  
     axis 0 0 0  XYZ 
  end
  begin
     id 7 
     name rfemur
     direction -0.34202 -0.939693 0   
     length 7.43932   
     axis 0 0 -20   XYZ
    dof rx ry rz
    limits (-160.0 20.0)
           (-70.0 70.0)
           (-70.0 60.0)
  end
  begin
     id 8 
     name rtibia
     direction -0.34202 -0.939693 0   
     length 7.11893   
     axis 0 0 -20   XYZ
    dof rx
    limits (-10.0 170.0)
 end
 begin
     id 9 
     name rfoot
     direction -0.131771 -0.362037 0.922803   
     length 2.53019  
     axis -90 -7.62852e-016 -20   XYZ
    dof rx rz
    limits (-45.0 90.0)
           (-20.0 70.0)
  end
  begin
     id 10 
     name rtoes
     direction -1.53733e-011 -4.21932e-011 1   
     length 1.24596   
     axis -90 -7.62852e-016 -20   XYZ
    dof rx
    limits (-90.0 20.0)
  end
  begin
     id 11 
     name lowerback
     direction 0.0235427 0.999023 -0.0374125   
     length 2.21768   
     axis 0 0 0   XYZ
    dof rx ry rz
    limits (-20.0 45.0)
           (-30.0 30.0)
           (-30.0 30.0)
  end
  begin
     id 12 
     name upperback
     direction 0.0302156 0.996818 -0.073759   
     length 2.20352   
     axis 0 0 0   XYZ
    dof rx ry rz
    limits (-20.0 45.0)
           (-30.0 30.0)
           (-30.0 30.0)
  end
  begin
     id 13 
     name thorax
     direction 0.0187169 0.998235 -0.0563532   
     length 2.22103   
     axis 0 0 0   XYZ
    dof rx ry rz
    limits (-20.0 45.0)
           (-30.0 30.0)
           (-30.0 30.0)
  end
  begin
     id 14 
     name lowerneck
     direction -0.119528 0.987423 0.103481   
     length 1.72948   
     axis 0 0 0   XYZ
    dof rx ry rz
    limits (-20.0 45.0)
           (-30.0 30.0)
           (-30.0 30.0)
  end
  begin
     id 15 
     name upperneck
     direction 0.248049 0.963095 -0.104496   
     length 1.74979   
     axis 0 0 0   XYZ
    dof rx ry rz
    limits (-20.0 45.0)
           (-30.0 30.0)
           (-30.0 30.0)
  end
  begin
     id 16
     name head
     direction 0.0903589 0.994284 -0.056876  
     length 1.78268  
     axis 0 0 0   XYZ
    dof rx ry rz
    limits (-20.0 45.0)
           (-30.0 30.0)
           (-30.0 30.0)
  end
  begin
     id 17 
     name lclavicle
     direction 0.946008 0.242039 -0.215608  
     length 3.80783  
     axis 0 0 0   XYZ
    dof ry rz
    limits (-20.0 10.0)
           (0.0 20.0)
  end
  begin
     id 18 
     name lhumerus
     direction 1 -4.48991e-011 -2.25695e-027   
     length 4.83125   
     axis 180 -30 -90   XYZ
    dof rx ry rz
    limits (-60.0 90.0)
           (-90.0 90.0)
           (-90.0 90.0)
  end
  begin
     id 19
     name lradius
     direction 0.999991 0.00366712 -0.00211721   
     length 3.00391   
     axis 180 -30 -90   XYZ
    dof rx
    limits (-10.0 170.0)
  end
  begin
     id 20
     name lwrist
     direction 0.999991 0.00393016 -0.00141978   
     length 1.50195   
     axis -1.00488e-014 90 90   XYZ
    dof ry
    limits (-180.0 0.0)
 end
  begin
     id 21 
     name lhand
     direction 1 -4.49123e-011 2.72098e-026   
     length 1.2717   
     axis -1.73687e-014 90 90   XYZ
    dof rx rz
    limits (-90.0 90.0)
           (-45.0 45.0)
  end
  begin
     id 22 
     name lfingers
     direction 1 -4.48678e-011 5.4479e-026   
     length 1.02528   
     axis -3.47372e-014 90 90   XYZ
    dof rx
    limits (0.0 90.0)
  end
  begin
     id 23
     name lthumb
     direction 0.707107 -6.34851e-011 0.707107   
     length 1.4721   
     axis -90 45 -1.62303e-014   XYZ
    dof rx rz
    limits (-45.0 45.0)
           (-45.0 45.0)
  end
  begin
     id 24 
     name rclavicle
     direction -0.981723 0.189447 -0.0181673   
     length 3.74989  
     axis 0 0 0   XYZ 
    dof ry rz
    limits (-10.0 20.0)
           (-20.0 0.0)
  end
  begin
     id 25 
     name rhumerus
     direction -1 -4.48985e-011 2.38206e-027  
     length 4.61118   
     axis 180 30 90   XYZ
    dof rx ry rz
    limits (-90.0 60.0)
           (-90.0 90.0)
           (-90.0 90.0)
  end
  begin
     id 26 
     name rradius
     direction -1 -4.48977e-011 7.41019e-027   
     length 2.91491   
     axis 180 30 90   XYZ
    dof rx
    limits (-10.0 170.0)
  end
  begin
     id 27 
     name rwrist
     direction -1 -4.48549e-011 1.3624e-026   
     length 1.45745   
     axis -1.00488e-014 -90 -90   XYZ
    dof ry
    limits (-180.0 0.0)
  end
  begin
     id 28
     name rhand
     direction -1 -4.49107e-011 2.72109e-026   
     length 1.30769   
     axis -1.73687e-014 -90 -90   XYZ
    dof rx rz
    limits (-90.0 90.0)
           (-45.0 45.0)
  end
  begin
     id 29
     name rfingers
     direction -1 -4.48919e-011 5.44468e-026   
     length 1.05429   
     axis -3.47372e-014 -90 -90   XYZ
    dof rx
    limits (0.0 90.0)
  end
  begin
     id 30
     name rthumb
     direction -0.707107 -6.35315e-011 0.707107   
     length 1.51376   
     axis -90 -45 1.62303e-014   XYZ
    dof rx rz
    limits (-45.0 45.0)
           (-45.0 45.0)
  end
:hierarchy
  begin
    root lhipjoint rhipjoint lowerback
    lhipjoint lfemur
    lfemur ltibia
    ltibia lfoot
    lfoot ltoes
    rhipjoint rfemur
    rfemur rtibia
    rtibia rfoot
    rfoot rtoes
    lowerback upperback
    upperback thorax
    thorax lowerneck lclavicle rclavicle
    lowerneck upperneck
    upperneck head
    lclavicle lhumerus
    lhumerus lradius
    lradius lwrist
    lwrist lhand lthumb
    lhand lfingers
    rclavicle rhumerus
    rhumerus rradius
    rradius rwrist
    rwrist rhand rthumb
    rhand rfingers
  end

#!OML:ASF X:\für Bonn\!DataBase\2005_08_11_Bastian_Final\c3d\Bastian.ASF
:FULLY-SPECIFIED
:DEGREES
1
root 4.34032 16.6663 -7.73844 172.092 10.2724 -178.265
lowerback 3.22938 -5.88236 1.5332
upperback 6.53198 -7.45068 1.24425
thorax 4.93448 -3.47331 0.375044
lowerneck -8.85893 -1.36963 -5.3789
upperneck -2.59427 -1.12787 5.4321
head 0.781938 -0.352187 2.64094
rclavicle -1.08288e-013 9.54166e-015
rhumerus -36.1206 30.314 -103.902
rradius 116.479
rwrist 4.95019
rhand -18.8799 13.6782
rfingers 7.12502
rthumb 7.4211 -16.1717
lclavicle -1.08288e-013 9.54166e-015
lhumerus -13.2793 -40.9893 94.3154
lradius 120.511
lwrist 31.7672
lhand -9.47616 -22.0754
lfingers 7.12502
lthumb 16.488 7.24395
rfemur 1.47447 -1.13853 25.5971
rtibia 50.3471
rfoot -27.3247 -2.85955
rtoes 0.0441055
lfemur -0.772358 5.12893 -16.325
ltibia 51.8193
lfoot -24.1573 -4.40217
ltoes -20.9063
2
root 4.32205 16.6298 -7.77917 172.207 9.64421 -178.401
lowerback 3.20032 -5.9918 1.23186
upperback 6.42563 -7.6083 1.2838
thorax 4.88442 -3.57317 0.578274
lowerneck -8.56484 -1.44203 -5.25094
upperneck -2.60825 -1.25738 5.40858
head 0.731889 -0.425283 2.60364
rclavicle -3.89618e-014 0
rhumerus -34.4781 31.2376 -103.319
rradius 116.811
rwrist 4.88834
rhand -19.3898 13.471
rfingers 7.12502
rthumb 6.92885 -16.3956
lclavicle -3.89618e-014 0
lhumerus -12.5207 -41.3498 94.2152
lradius 120.484
lwrist 31.5989
lhand -9.9553 -22.0485
lfingers 7.12502
lthumb 16.0267 7.30866
rfemur 0.408205 -1.39688 25.2888
rtibia 52.2583
rfoot -26.7267 -2.8581
rtoes -0.256805
lfemur -0.321823 5.50297 -16.4697
ltibia 50.9547
lfoot -25.1145 -4.65515
ltoes -21.3028
3
root 4.30343 16.5918 -7.81902 172.274 9.0337 -178.541
lowerback 3.22906 -6.10261 0.936124
upperback 6.35086 -7.76195 1.30133
thorax 4.83339 -3.66805 0.760307
lowerneck -8.28809 -1.51292 -5.12558
upperneck -2.61689 -1.38246 5.43296
head 0.686993 -0.494875 2.58366
rclavicle 2.60408e-014 -1.19271e-015
rhumerus -32.6844 32.1707 -102.642
rradius 117.1
rwrist 4.8052
rhand -19.9139 13.2805
rfingers 7.12502
rthumb 6.42297 -16.6021
lclavicle 2.60408e-014 -1.19271e-015
lhumerus -11.8128 -41.709 94.1273
lradius 120.457
lwrist 31.4762
lhand -10.3864 -22.1187
lfingers 7.12502
lthumb 15.6115 7.27134
rfemur -0.78842 -1.70275 24.9504
rtibia 54.4631
rfoot -25.9064 -2.77626
rtoes -0.380055
lfemur 0.193308 5.81061 -16.6021
ltibia 50.0741
lfoot -26.019 -4.96893
ltoes -21.7227
4
root 4.28374 16.5556 -7.85639 172.324 8.43182 -178.696
lowerback 3.33804 -6.19755 0.623146
upperback 6.27251 -7.89126 1.3209
thorax 4.73763 -3.75111 0.962946
lowerneck -8.03909 -1.60047 -4.976
upperneck -2.61 -1.53027 5.41131
head 0.652049 -0.576301 2.54341
rclavicle -5.46658e-014 9.54166e-015
rhumerus -30.7754 33.0766 -101.82
rradius 117.33
rwrist 4.80237
rhand -20.5184 13.1374
rfingers 7.12502
rthumb 5.83934 -16.7622
lclavicle -5.46658e-014 9.54166e-015
lhumerus -11.1398 -42.096 94.1162
lradius 120.49
lwrist 31.4596
lhand -10.839 -22.1552
lfingers 7.12502
lthumb 15.1755 7.26829
rfemur -2.16741 -2.09398 24.5656
rtibia 56.9205
rfoot -24.7524 -2.64409
rtoes -1.02925
lfemur 0.740733 5.99612 -16.7431
ltibia 49.1337
lfoot -26.792 -5.46771
ltoes -21.4389
5
root 4.26401 16.5215 -7.89424 172.333 7.84376 -178.83
lowerback 3.50312 -6.30322 0.313876
upperback 6.2247 -8.03049 1.34851
thorax 4.64549 -3.8366 1.17641
lowerneck -7.78694 -1.67704 -4.87696
upperneck -2.63317 -1.65616 5.43012
head 0.606933 -0.645344 2.52721
rclavicle -2.26615e-014 1.66979e-014
rhumerus -28.729 33.9594 -100.86
rradius 117.498
rwrist 4.82056
rhand -21.0962 13.044
rfingers 7.12502
rthumb 5.28146 -16.8702
lclavicle -2.26615e-014 1.66979e-014
lhumerus -10.4284 -42.42 94.1067
lradius 120.506
lwrist 31.5353
lhand -11.2435 -22.2262
lfingers 7.12502
lthumb 14.7859 7.22632
rfemur -3.68715 -2.52726 24.1892
rtibia 59.5954
rfoot -23.2495 -2.45519
rtoes -2.36036
lfemur 1.37035 5.94396 -16.8719
ltibia 48.1484
lfoot -27.4338 -6.22559
ltoes -19.4872
6
root 4.24393 16.4908 -7.93552 172.292 7.24431 -179.043
lowerback 3.68624 -6.40556 -0.0682608
upperback 6.2154 -8.16319 1.33313
thorax 4.58972 -3.91941 1.38507
lowerneck -7.57423 -1.75634 -4.6969
upperneck -2.66335 -1.78788 5.41863
head 0.565041 -0.717012 2.48598
rclavicle 3.08613e-014 -1.94809e-014
rhumerus -26.5697 34.7321 -99.8498
rradius 117.585
rwrist 4.96666
rhand -21.675 13.0435
rfingers 7.12502
rthumb 4.72256 -16.8839
lclavicle 3.08613e-014 -1.94809e-014
lhumerus -9.67795 -42.7275 94.0214
lradius 120.549
lwrist 31.7949
lhand -11.5881 -22.306
lfingers 7.12502
lthumb 14.4539 7.17063
rfemur -5.35671 -2.99759 23.7101
rtibia 62.4653
rfoot -21.4034 -2.20507
rtoes -4.06946
lfemur 2.07495 5.69438 -17.0996
ltibia 47.1535
lfoot -28.0037 -7.25268
ltoes -16.3496
7
root 4.2238 16.4542 -7.97983 172.213 6.65455 -179.3
lowerback 3.83617 -6.50453 -0.465229
upperback 6.26968 -8.28792 1.2868
thorax 4.61894 -3.99555 1.56246
lowerneck -7.44842 -1.85123 -4.5498
upperneck -2.69017 -1.9313 5.44662
head 0.540827 -0.791565 2.46389
rclavicle -8.17502e-014 3.81667e-014
rhumerus -24.2485 35.3862 -98.7074
rradius 117.665
rwrist 5.15605
rhand -22.1747 13.0453
rfingers 7.12502
rthumb 4.24006 -16.8923
lclavicle -8.17502e-014 3.81667e-014
lhumerus -8.80696 -43.0404 93.8656
lradius 120.58
lwrist 32.0845
lhand -11.9086 -22.3517
lfingers 7.12502
lthumb 14.1451 7.14682
rfemur -7.15442 -3.40553 23.1833
rtibia 65.5129
rfoot -19.2383 -1.87069
rtoes -5.56517
lfemur 2.81126 5.36451 -17.3796
ltibia 46.1929
lfoot -28.5357 -8.28692
ltoes -13.3163
8
root 4.20426 16.4082 -8.02667 172.088 6.07116 -179.574
lowerback 3.98247 -6.60454 -0.885513
upperback 6.3505 -8.41239 1.22223
thorax 4.68097 -4.07132 1.73139
lowerneck -7.29998 -1.93697 -4.35245
upperneck -2.72424 -2.06657 5.44844
head 0.5086 -0.8632 2.42433
rclavicle -2.88238e-014 2.8625e-014
rhumerus -21.9273 35.8825 -97.5922
rradius 117.701
rwrist 5.42176
rhand -22.6239 13.1192
rfingers 7.12502
rthumb 3.80628 -16.8266
lclavicle -2.88238e-014 2.8625e-014
lhumerus -7.99071 -43.3315 93.7445
lradius 120.63
lwrist 32.3791
lhand -12.1982 -22.3428
lfingers 7.12502
lthumb 13.866 7.17501
rfemur -9.00771 -3.75762 22.6475
rtibia 68.6931
rfoot -16.7748 -1.56178
rtoes -6.41542
lfemur 3.58382 5.05644 -17.6796
ltibia 45.2546
lfoot -29.095 -9.15265
ltoes -11.4106
9
root 4.1858 16.363 -8.07846 171.912 5.48121 -179.895
lowerback 4.1206 -6.70292 -1.33336
upperback 6.47562 -8.53053 1.13075
thorax 4.79634 -4.14311 1.88344
lowerneck -7.2411 -2.03331 -4.16577
upperneck -2.71919 -2.21213 5.45325
head 0.504731 -0.938193 2.38738
rclavicle 6.1176e-014 -2.14687e-014
rhumerus -19.5104 36.273 -96.4349
rradius 117.732
rwrist 5.70358
rhand -22.9891 13.1612
rfingers 7.12502
rthumb 3.45367 -16.7906
lclavicle 6.1176e-014 -2.14687e-014
lhumerus -7.11215 -43.5957 93.5661
lradius 120.672
lwrist 32.7415
lhand -12.3796 -22.423
lfingers 7.12502
lthumb 13.6912 7.10669
rfemur -10.8704 -4.14271 22.0269
rtibia 71.9111
rfoot -13.9942 -1.21159
rtoes -7.01527
lfemur 4.44663 4.75906 -18.0282
ltibia 44.28
lfoot -29.6307 -9.91719
ltoes -9.92729
10
root 4.16913 16.3262 -8.13657 171.461 4.8885 -180.286
lowerback 4.54916 -6.79438 -1.89874
upperback 6.68417 -8.62398 1.00125
thorax 4.85137 -4.20098 2.08928
lowerneck -7.19756 -2.14136 -3.97643
upperneck -2.72276 -2.3716 5.46223
head 0.501207 -1.01954 2.35099
rclavicle -1.16836e-013 2.38542e-014
rhumerus -17.0099 36.5872 -95.2291
rradius 117.773
rwrist 5.92815
rhand -23.3293 13.1312
rfingers 7.12502
rthumb 3.1251 -16.8256
lclavicle -1.16836e-013 2.38542e-014
lhumerus -6.21446 -43.8709 93.3962
lradius 120.71
lwrist 33.1141
lhand -12.5514 -22.4294
lfingers 7.12502
lthumb 13.5256 7.11138
rfemur -12.4071 -4.56479 21.2743
rtibia 75.0449
rfoot -11.1706 -0.811633
rtoes -7.44769
lfemur 5.67677 4.42839 -18.4338
ltibia 43.2311
lfoot -30.129 -10.6492
ltoes -8.74875
